#!OML:ASF X:\für Bonn\!DataBase\2005_08_12_Daniel\c3d\Daniel.ASF
:FULLY-SPECIFIED
:DEGREES
171
root 0.223347 18.7506 1.03582 -557.692 -103.547 550.042
lowerback 11.5481 2.04307 2.74082
upperback -8.13638 2.05303 -7.23334
thorax -15.376 -0.0132966 -10.3788
lowerneck 5.985 -6.82639 -1.69869
upperneck 7.84842 -9.55243 2.7198
head 1.68629 -4.87495 1.14023
rclavicle 9.54166e-015 4.29375e-014
rhumerus 92.3427 -11.3651 -94.2549
rradius 16.0012
rwrist 59.8221
rhand -40.5071 739.159
rfingers 7.12502
rthumb -13.4565 -10.3864
lclavicle 9.54166e-015 4.29375e-014
lhumerus -111.579 212.15 -118.009
lradius 73.1397
lwrist 46.4938
lhand -18.2523 -0.342678
lfingers 7.12502
lthumb 8.02683 29.4849
rfemur -1.27428 -1.27467 12.2785
rtibia 36.5156
rfoot 2.23888 -25.4074
rtoes -5.6726
lfemur -194.073 199.336 -202.14
ltibia 45.3986
lfoot 374.793 7.19735
ltoes 4.57798
172
root 0.209756 18.8508 1.03481 -558.501 -103.323 550.788
lowerback 11.4476 2.08447 2.73738
upperback -8.1101 2.09069 -7.34551
thorax -15.2703 0.00101173 -10.5074
lowerneck 5.92934 -6.76535 -1.55632
upperneck 8.39417 -9.50961 2.88912
head 1.87383 -4.85188 1.15739
rclavicle 1.11319e-014 -1.145e-013
rhumerus 95.251 -9.86039 -104.378
rradius 12.6395
rwrist 69.9248
rhand -34.6539 736.723
rfingers 7.12502
rthumb -7.81076 -13.1124
lclavicle 1.11319e-014 -1.145e-013
lhumerus -111.969 212.049 -117.771
lradius 72.2976
lwrist 46.5772
lhand -18.1939 0.376257
lfingers 7.12502
lthumb 8.08317 30.2017
rfemur -0.940016 0.0990589 12.3447
rtibia 35.727
rfoot 3.05201 -26.3554
rtoes -5.334
lfemur -193.823 199.031 -202.27
ltibia 45.0342
lfoot 376.622 7.58433
ltoes 4.70244
173
root 0.194743 18.9355 1.03376 -559.494 -103.098 551.713
lowerback 11.3007 2.12422 2.65514
upperback -8.07807 2.11562 -7.43335
thorax -15.1327 0.0227711 -10.5516
lowerneck 5.97354 -6.68705 -1.4104
upperneck 8.90564 -9.44489 3.0317
head 2.03246 -4.81872 1.17064
rclavicle -1.11319e-014 4.45278e-014
rhumerus 98.1511 -7.09663 -117.874
rradius 9.75693
rwrist 83.7352
rhand -28.5931 734.445
rfingers 7.12502
rthumb -1.95873 -15.5253
lclavicle -1.11319e-014 4.45278e-014
lhumerus -112.513 211.942 -117.382
lradius 71.556
lwrist 46.6308
lhand -18.2477 0.97829
lfingers 7.12502
lthumb 8.03129 30.8057
rfemur -0.638712 1.34112 12.3339
rtibia 35.042
rfoot 3.82304 -27.1226
rtoes -5.0762
lfemur -193.536 198.733 -202.447
ltibia 44.6979
lfoot 378.274 8.01197
ltoes 4.72793
174
root 0.184979 19.006 1.03601 -560.704 -102.774 552.83
lowerback 11.2025 2.19106 2.60838
upperback -8.04379 2.18336 -7.52923
thorax -15.0137 0.0587693 -10.6402
lowerneck 6.08582 -6.61584 -1.17876
upperneck 9.34688 -9.38412 3.15271
head 2.1519 -4.78567 1.16721
rclavicle -4.37326e-014 2.06736e-014
rhumerus 99.5433 -4.32315 -131.258
rradius 8.7912
rwrist 97.4636
rhand -21.9619 732.755
rfingers 7.12502
rthumb 4.44552 -17.1786
lclavicle -4.37326e-014 2.06736e-014
lhumerus -113.074 211.849 -117.008
lradius 70.9155
lwrist 46.7118
lhand -18.3798 1.54506
lfingers 7.12502
lthumb 7.90376 31.3773
rfemur -0.403094 2.48894 12.2609
rtibia 34.4811
rfoot 4.76747 -27.6109
rtoes -5.06502
lfemur -193.196 198.383 -202.657
ltibia 44.3739
lfoot 379.727 8.47346
ltoes 4.66036
175
root 0.170247 19.063 1.03578 -561.664 -102.516 553.703
lowerback 10.9963 2.23962 2.56499
upperback -7.97998 2.23227 -7.61348
thorax -14.7939 0.0950605 -10.6982
lowerneck 6.2325 -6.56112 -0.868351
upperneck 9.75237 -9.33983 3.24298
head 2.24905 -4.75876 1.14313
rclavicle 6.2816e-014 -4.77083e-015
rhumerus 99.9829 -1.56802 -144.596
rradius 8.77991
rwrist 111.268
rhand -15.6572 731.781
rfingers 7.12502
rthumb 10.5309 -17.9348
lclavicle 6.2816e-014 -4.77083e-015
lhumerus -113.585 211.772 -116.618
lradius 70.3165
lwrist 46.7095
lhand -18.6334 2.02657
lfingers 7.12502
lthumb 7.65896 31.8679
rfemur -0.187469 3.48554 12.2479
rtibia 34.0359
rfoot 5.88086 -27.8544
rtoes -5.31877
lfemur -192.849 198.075 -202.806
ltibia 44.0405
lfoot 381.044 8.95673
ltoes 4.76719
176
root 0.154836 19.1074 1.03559 -562.349 -102.231 554.29
lowerback 10.7339 2.28073 2.56938
upperback -7.90193 2.28882 -7.6589
thorax -14.5194 0.13832 -10.732
lowerneck 6.44446 -6.51157 -0.450904
upperneck 10.0892 -9.28683 3.2406
head 2.30178 -4.7258 1.07604
rclavicle 3.02153e-014 -4.45278e-014
rhumerus 99.5882 0.881063 -157.967
rradius 9.4282
rwrist 125.12
rhand -10.5084 731.56
rfingers 7.12502
rthumb 15.494 -17.8395
lclavicle 3.02153e-014 -4.45278e-014
lhumerus -114.113 211.653 -116.217
lradius 69.8092
lwrist 46.6132
lhand -18.8529 2.43178
lfingers 7.12502
lthumb 7.44712 32.2807
rfemur -0.00667278 4.38022 12.3037
rtibia 33.7074
rfoot 7.05332 -27.8932
rtoes -5.6837
lfemur -192.471 197.792 -202.877
ltibia 43.6815
lfoot 382.15 9.44646
ltoes 4.91024
177
root 0.139398 19.1387 1.0355 -563.046 -101.959 554.892
lowerback 10.4477 2.31858 2.5463
upperback -7.8245 2.34038 -7.67955
thorax -14.2337 0.18519 -10.7161
lowerneck 6.6643 -6.46598 -0.0311466
upperneck 10.4318 -9.23534 3.1973
head 2.35342 -4.69361 0.995961
rclavicle 7.95139e-016 -3.65764e-014
rhumerus 98.6059 2.79192 -171.408
rradius 10.2781
rwrist 138.93
rhand -7.13994 731.671
rfingers 7.12502
rthumb 18.7362 -17.4465
lclavicle 7.95139e-016 -3.65764e-014
lhumerus -114.645 211.495 -115.768
lradius 69.3439
lwrist 46.4261
lhand -19.002 2.75677
lfingers 7.12502
lthumb 7.3032 32.6107
rfemur 0.12163 5.13654 12.3316
rtibia 33.4795
rfoot 8.39413 -27.6674
rtoes -6.35485
lfemur -192.079 197.553 -202.963
ltibia 43.2906
lfoot 383.047 9.92749
ltoes 4.84751
178
root 0.124094 19.1566 1.0344 -563.685 -101.688 555.44
lowerback 10.1426 2.36319 2.49652
upperback -7.74795 2.40357 -7.66025
thorax -13.9374 0.244604 -10.6371
lowerneck 6.96084 -6.42452 0.321817
upperneck 10.692 -9.18798 3.18615
head 2.37066 -4.66611 0.941252
rclavicle 2.54444e-014 6.67916e-014
rhumerus 97.9691 2.88726 -175.666
rradius 10.9496
rwrist 143.358
rhand -3.83991 731.453
rfingers 7.12502
rthumb 21.9077 -17.3267
lclavicle 2.54444e-014 6.67916e-014
lhumerus -115.111 211.3 -115.287
lradius 68.8692
lwrist 46.1517
lhand -19.0517 3.03873
lfingers 7.12502
lthumb 7.25526 32.8943
rfemur 0.205733 5.82269 12.3678
rtibia 33.3402
rfoot 9.58912 -27.3581
rtoes -7.25042
lfemur -191.668 197.398 -203.04
ltibia 42.8744
lfoot 383.706 10.4644
ltoes 4.609
179
root 0.108563 19.1615 1.03413 -564.183 -101.419 555.863
lowerback 9.78414 2.40861 2.47271
upperback -7.65144 2.47686 -7.62881
thorax -13.5825 0.311688 -10.5536
lowerneck 7.17023 -6.40043 0.685031
upperneck 10.9911 -9.16202 3.13974
head 2.41425 -4.6472 0.869877
rclavicle 5.24792e-014 -3.65764e-014
rhumerus 97.6063 2.48281 -177.777
rradius 11.3547
rwrist 145.449
rhand -1.60359 731.276
rfingers 7.12502
rthumb 24.0536 -17.237
lclavicle 5.24792e-014 -3.65764e-014
lhumerus -115.567 211.092 -114.749
lradius 68.4818
lwrist 45.8359
lhand -18.9588 3.23586
lfingers 7.12502
lthumb 7.34492 33.0884
rfemur 0.246915 6.44415 12.4322
rtibia 33.2657
rfoot 10.6364 -27.0677
rtoes -8.00028
lfemur -191.26 197.321 -203.101
ltibia 42.4628
lfoot 384.095 11.0508
ltoes 4.3163
180
root 0.0941133 19.1539 1.03299 -564.748 -101.162 556.355
lowerback 9.42209 2.45116 2.41661
upperback -7.55136 2.54247 -7.58797
thorax -13.226 0.378679 -10.4379
lowerneck 7.44793 -6.37235 0.993515
upperneck 11.2049 -9.12815 3.12642
head 2.42271 -4.62677 0.821933
rclavicle -3.18055e-015 2.22639e-014
rhumerus 97.3949 1.79917 -178.528
rradius 11.5449
rwrist 146.09
rhand -0.216565 731.14
rfingers 7.12502
rthumb 25.3829 -17.1901
lclavicle -3.18055e-015 2.22639e-014
lhumerus -116.128 210.865 -114.103
lradius 68.2316
lwrist 45.4107
lhand -18.6893 3.42299
lfingers 7.12502
lthumb 7.60504 33.2663
rfemur 0.291605 6.97661 12.4707
rtibia 33.2218
rfoot 11.318 -26.8633
rtoes -8.44476
lfemur -190.841 197.31 -203.193
ltibia 42.0902
lfoot 384.231 11.5536
ltoes 3.89746
181
root 0.080338 19.1323 1.03368 -565.169 -100.902 556.75
lowerback 9.00898 2.49178 2.39575
upperback -7.44921 2.61231 -7.54602
thorax -12.8354 0.446034 -10.3377
lowerneck 7.48563 -6.33485 1.24385
upperneck 11.6216 -9.10367 3.12612
head 2.54449 -4.60722 0.774905
rclavicle -6.36111e-014 6.36111e-014
rhumerus 97.3171 1.01543 -178.405
rradius 11.5221
rwrist 145.717
rhand 0.486238 731.062
rfingers 7.12502
rthumb 26.056 -17.1713
lclavicle -6.36111e-014 6.36111e-014
lhumerus -116.557 210.617 -113.6
lradius 68.0522
lwrist 45.1324
lhand -18.3794 3.52396
lfingers 7.12502
lthumb 7.90417 33.3562
rfemur 0.295249 7.37262 12.4956
rtibia 33.1816
rfoot 11.8401 -26.6054
rtoes -8.74806
lfemur -190.471 197.393 -203.278
ltibia 41.8025
lfoot 384.019 12.0611
ltoes 3.47164
182
root 0.068682 19.1003 1.03409 -565.571 -100.644 557.194
lowerback 8.54471 2.52591 2.35642
upperback -7.35237 2.67162 -7.49496
thorax -12.4247 0.511009 -10.2102
lowerneck 7.38262 -6.2812 1.40446
upperneck 12.1268 -9.07577 3.16433
head 2.72806 -4.58478 0.747713
rclavicle 8.26944e-014 -4.13472e-014
rhumerus 97.2782 0.241566 -177.755
rradius 11.334
rwrist 144.81
rhand 0.715112 731.028
rfingers 7.12502
rthumb 26.2751 -17.1726
lclavicle 8.26944e-014 -4.13472e-014
lhumerus -116.875 210.328 -113.179
lradius 67.9345
lwrist 44.9013
lhand -18.0748 3.66116
lfingers 7.12502
lthumb 8.19811 33.4821
rfemur 0.232129 7.69053 12.4934
rtibia 33.1531
rfoot 12.1659 -26.2838
rtoes -9.00993
lfemur -190.224 197.52 -203.356
ltibia 41.6226
lfoot 383.566 12.3894
ltoes 2.95608
